<svg width="18" height="14" viewBox="0 0 18 14" fill="none" xmlns="http://www.w3.org/2000/svg">
<path d="M9.20342 0.333374C9.64842 0.335874 10.7617 0.346707 11.9451 0.394207L12.3651 0.412541C13.5559 0.468374 14.7459 0.565041 15.3367 0.729207C16.1242 0.950874 16.7426 1.59587 16.9517 2.41421C17.2851 3.71421 17.3267 6.24921 17.3317 6.86337L17.3326 6.99004V7.13504C17.3267 7.74921 17.2851 10.285 16.9517 11.5842C16.7401 12.405 16.1209 13.0509 15.3367 13.2692C14.7459 13.4334 13.5559 13.53 12.3651 13.5859L11.9451 13.605C10.7617 13.6517 9.64842 13.6634 9.20342 13.665L9.00758 13.6659H8.79508C7.85342 13.66 3.91508 13.6175 2.66175 13.2692C1.87508 13.0475 1.25591 12.4025 1.04675 11.5842C0.713415 10.2842 0.671748 7.74921 0.666748 7.13504V6.86337C0.671748 6.24921 0.713415 3.71337 1.04675 2.41421C1.25841 1.59337 1.87758 0.947541 2.66258 0.730041C3.91508 0.380874 7.85425 0.338374 8.79592 0.333374H9.20342ZM7.33258 4.08337V9.91671L12.3326 7.00004L7.33258 4.08337Z" fill="white"/>
</svg>
